<?xml version="1.0" encoding="utf-8"?>
<!-- Generator: Adobe Illustrator 15.0.0, SVG Export Plug-In . SVG Version: 6.00 Build 0)  -->
<!DOCTYPE svg PUBLIC "-//W3C//DTD SVG 1.1//EN" "http://www.w3.org/Graphics/SVG/1.1/DTD/svg11.dtd">
<svg version="1.1" xmlns="http://www.w3.org/2000/svg" xmlns:xlink="http://www.w3.org/1999/xlink" x="0px" y="0px"
    viewBox="0 0 1202.28 841.89" enable-background="new 0 0 1202.28 841.89"
   xml:space="preserve" preserveAspectRatio="xMinYMax meet">
<g id="block">
  <path fill="#F2F2F2" stroke="#000000" stroke-width="1.5" d="M1192.693,792.862c0,16.106-13.053,29.159-29.168,29.159H647.87
    c-16.089,0-29.135-13.053-29.135-29.159V407.803c0-16.107,13.045-29.16,29.135-29.16h515.655c16.115,0,29.168,13.053,29.168,29.16
    V792.862z"/>
  <path d="M698.691,454.571l-2.027,40.5c0,0,152.855-15.196,262.185-19.251c109.33-4.035,152.856-8.091,152.856-8.091l-4.064-17.222
    c0,0-130.578,1.028-233.818,3.037C784.484,455.32,698.691,454.571,698.691,454.571z"/>
  <path d="M698.691,530.472l-2.027,40.491c0,0,152.855-15.179,262.185-19.214c109.33-4.037,152.856-8.099,152.856-8.099
    l-4.064-17.214c0,0-130.578,1.009-233.818,3.026C784.484,531.239,698.691,530.472,698.691,530.472z"/>
  <path d="M698.691,615.516l-2.027,40.5c0,0,152.855-15.214,262.185-19.251c109.33-4.035,152.856-8.089,152.856-8.089l-4.064-17.215
    c0,0-130.578,1.002-233.818,3.028C784.484,616.238,698.691,615.516,698.691,615.516z"/>
  <line fill="none" stroke="#000000" stroke-width="1.5" x1="613.674" y1="703.568" x2="1194.693" y2="703.568"/>
  <polygon fill="#B3B3B3" points="640.673,785.254 644.736,724.487 972.695,724.487 662.95,744.765  "/>
</g>
<g id="bar">
  <path fill="#F2F2F2" d="M781.408,374.314H662.623c0,0,37.795-187.623-47.249-209.23c-85.026-21.58-168.714-20.224-184.9,32.402
    c-16.188,52.642-6.759,175.462-6.759,175.462l-120.114-1.339c0,0-13.365-209.22,41.849-269.943
    c67.47-74.223,282.87-89.053,364.424-24.303C801.63,150.254,781.408,374.314,781.408,374.314z"/>
  <path d="M673.408,375.644l-25.643,4.036c0,0,11.49-152.829-8.758-190.284c-20.25-37.462-169.07-29.375-192.348-8.097
    c-23.275,21.249-15.16,194.345-15.16,194.345l-22.275-2.026c0,0-19.242-185.257,25.312-213.596
    c44.524-28.312,184.221-26.285,216.595,3.037C683.533,192.423,673.408,375.644,673.408,375.644z"/>
  <path d="M318.449,374.314l-29.678-1.366c0,0,1.312-157.909,10.793-214.624c9.43-56.659,80.963-121.453,152.489-129.523
    c71.562-8.117,125.544-6.76,182.23-2.697c56.679,4.035,152.516,74.204,156.551,151.132c4.036,76.955,5.394,206.507,5.394,206.507
    l-29.679-6.732c0,0,1.34-149.83-8.115-206.507c-9.429-56.678-80.991-109.303-128.213-117.419
    c-47.224-8.115-143.07-2.723-180.836,2.697c-37.823,5.42-112.026,49.92-124.205,109.303
    C313.056,224.485,318.449,374.314,318.449,374.314z"/>
  <path fill="#B3B3B3" d="M743.586,252.823c0,0,0-115.391-101.24-145.757C541.169,76.701,419.68,92.915,419.68,92.915
    s131.578-58.713,251.031-4.071C790.14,143.504,743.586,252.823,743.586,252.823z"/>
</g>
</svg>
